<?xml version="1.0" encoding="utf-8"?>
<!-- Generator: Adobe Illustrator 19.1.0, SVG Export Plug-In . SVG Version: 6.00 Build 0)  -->
<svg version="1.1" id="linkedin" xmlns="http://www.w3.org/2000/svg" xmlns:xlink="http://www.w3.org/1999/xlink" x="0px" y="0px"
	 viewBox="-247 370.9 100 100" style="enable-background:new -247 370.9 100 100;" xml:space="preserve">
<style type="text/css">
	.st0{fill:#FFFFFF;}
</style>
<g>
	<path class="st0" d="M-204.8,423.4c-0.7-0.4-1.7-0.5-3-0.5h-6.4v8.6h6.3c1.3,0,2.3-0.2,3-0.6c1.3-0.7,2-2,2-4
		C-202.8,425.2-203.5,424-204.8,423.4z"/>
	<path class="st0" d="M-204.7,416.7c0.8-0.5,1.2-1.5,1.2-2.8c0-1.5-0.5-2.5-1.6-3c-0.9-0.3-2.1-0.5-3.5-0.5h-5.6v7.1h6.4
		C-206.5,417.5-205.5,417.2-204.7,416.7z"/>
	<path class="st0" d="M-174.2,386.6h-45.6c-6.3,0-11.5,5.2-11.5,11.5v45.6c0,6.3,5.2,11.5,11.5,11.5h45.6c6.3,0,11.5-5.2,11.5-11.5
		v-45.6C-162.7,391.8-167.9,386.6-174.2,386.6z M-189.6,406.1h12.1v3.2h0h-12.1V406.1z M-197.9,432.5c-0.6,1-1.3,1.9-2.1,2.5
		c-1,0.8-2.1,1.3-3.4,1.6c-1.3,0.3-2.7,0.4-4.2,0.4h-13.5v-32.3h14.5c3.7,0.1,6.2,1.2,7.8,3.4c0.9,1.4,1.4,3,1.4,4.9
		c0,2-0.5,3.6-1.4,4.8c-0.5,0.7-1.3,1.3-2.3,1.8c1.5,0.6,2.7,1.6,3.5,2.9c0.8,1.3,1.2,2.9,1.2,4.7
		C-196.5,429.2-197,430.9-197.9,432.5z M-172.9,426.2h-15.7c0.1,2.3,0.8,4,2.2,4.9c0.9,0.6,1.9,0.9,3.1,0.9c1.3,0,2.3-0.3,3.1-1.1
		c0.4-0.4,0.8-0.9,1.2-1.6h5.7c-0.2,1.4-0.8,2.8-2.1,4.2c-1.9,2.3-4.6,3.4-8.1,3.4c-2.9,0-5.4-1-7.6-2.9c-2.2-1.9-3.3-5-3.3-9.3
		c0-4,1-7.1,3-9.2c2-2.1,4.5-3.2,7.7-3.2c1.9,0,3.6,0.4,5.1,1.1c1.5,0.7,2.7,1.9,3.7,3.4c0.9,1.4,1.5,3,1.7,4.8
		C-172.9,422.6-172.8,424.2-172.9,426.2z"/>
	<path class="st0" d="M-183.5,417.3c-1.4,0-2.6,0.4-3.4,1.3c-0.8,0.9-1.3,2.1-1.5,3.6h9.7v0c-0.1-1.6-0.6-2.8-1.5-3.7
		C-181.1,417.7-182.2,417.3-183.5,417.3z"/>
</g>
</svg>
