<?xml version="1.0" encoding="utf-8"?>
<!-- Generator: Adobe Illustrator 19.1.0, SVG Export Plug-In . SVG Version: 6.00 Build 0)  -->
<svg version="1.1" id="Capa_1" xmlns="http://www.w3.org/2000/svg" xmlns:xlink="http://www.w3.org/1999/xlink" x="0px" y="0px"
	 viewBox="0 0 89 54" style="enable-background:new 0 0 89 54;" xml:space="preserve">
<style type="text/css">
	.st0{fill:#2996D3;}
	.st1{fill:#C54E40;}
	.st2{fill:#348BC8;}
	.st3{fill:#FFFFFF;}
	.st4{fill:#D1792F;}
</style>
<rect x="-1445.9" y="277.6" class="st0" width="576.6" height="132"/>
<rect x="-927.4" y="72.4" class="st1" width="143.4" height="133.6"/>
<rect x="-1131.4" y="223" class="st2" width="150" height="132"/>
<path class="st3" d="M-997.5-3.4c0,1.9-0.2,3.5-0.7,5.1c-0.5,1.5-1.2,2.8-2.1,3.9c-0.9,1.1-2.1,1.9-3.5,2.5c-1.4,0.6-3.1,0.9-5,0.9
	c-0.9,0-1.7,0-2.6-0.1c-0.8-0.1-1.7-0.2-2.6-0.5l0.4-4.5c0-0.4,0.2-0.7,0.5-1c0.3-0.2,0.7-0.4,1.2-0.4c0.3,0,0.6,0,1,0.1
	c0.4,0.1,0.8,0.1,1.4,0.1c0.7,0,1.4-0.1,2-0.3c0.6-0.2,1-0.5,1.4-1c0.4-0.5,0.6-1.1,0.8-1.9s0.3-1.7,0.3-2.9v-21.4h7.7V-3.4z"/>
<rect x="-989.2" y="-24.6" class="st3" width="7.8" height="33.3"/>
<path class="st3" d="M-954.9-4.7c0.3,0.6,0.6,1.3,0.8,1.9c0.3-0.7,0.5-1.3,0.8-2s0.6-1.2,0.9-1.8l8.5-16.8c0.2-0.3,0.3-0.5,0.5-0.7
	c0.2-0.2,0.3-0.3,0.5-0.4c0.2-0.1,0.4-0.1,0.7-0.1c0.3,0,0.5,0,0.9,0h5.9V8.7h-6.8v-19.1c0-0.9,0-1.9,0.1-3l-8.8,17.1
	c-0.3,0.5-0.6,0.9-1.1,1.2c-0.5,0.3-1,0.4-1.6,0.4h-1c-0.6,0-1.1-0.1-1.6-0.4c-0.5-0.3-0.8-0.7-1.1-1.2l-8.9-17.1
	c0.1,0.5,0.1,1.1,0.1,1.6c0,0.5,0,1,0,1.4V8.7h-6.8v-33.3h5.9c0.3,0,0.6,0,0.9,0c0.3,0,0.5,0.1,0.7,0.1c0.2,0.1,0.4,0.2,0.5,0.4
	c0.2,0.2,0.3,0.4,0.5,0.7l8.6,16.9C-955.5-6-955.2-5.3-954.9-4.7z"/>
<path class="st3" d="M-911.1-4.7c0.3,0.6,0.6,1.3,0.8,1.9c0.3-0.7,0.5-1.3,0.8-2s0.6-1.2,0.9-1.8l8.5-16.8c0.2-0.3,0.3-0.5,0.5-0.7
	c0.2-0.2,0.3-0.3,0.5-0.4c0.2-0.1,0.4-0.1,0.7-0.1c0.3,0,0.5,0,0.9,0h5.9V8.7h-6.8v-19.1c0-0.9,0-1.9,0.1-3l-8.8,17.1
	c-0.3,0.5-0.6,0.9-1.1,1.2c-0.5,0.3-1,0.4-1.6,0.4h-1c-0.6,0-1.1-0.1-1.6-0.4c-0.5-0.3-0.8-0.7-1.1-1.2l-8.9-17.1
	c0.1,0.5,0.1,1.1,0.1,1.6c0,0.5,0,1,0,1.4V8.7h-6.8v-33.3h5.9c0.3,0,0.6,0,0.9,0c0.3,0,0.5,0.1,0.7,0.1c0.2,0.1,0.4,0.2,0.5,0.4
	c0.2,0.2,0.3,0.4,0.5,0.7l8.6,16.9C-911.7-6-911.4-5.3-911.1-4.7z"/>
<path class="st3" d="M-867.1-4V8.7h-7.7V-4l-12.1-20.6h6.8c0.7,0,1.2,0.2,1.6,0.5c0.4,0.3,0.7,0.7,1,1.2l4.7,9.7
	c0.4,0.8,0.7,1.5,1.1,2.1c0.3,0.7,0.6,1.3,0.8,2c0.2-0.7,0.5-1.3,0.8-2c0.3-0.7,0.7-1.4,1.1-2.1l4.7-9.7c0.1-0.2,0.2-0.4,0.4-0.6
	c0.2-0.2,0.3-0.4,0.5-0.5c0.2-0.2,0.4-0.3,0.7-0.4c0.3-0.1,0.6-0.1,0.9-0.1h6.8L-867.1-4z"/>
<path class="st3" d="M-1025.8-44.4c0.3,0.6,0.6,1.3,0.8,1.9c0.3-0.7,0.5-1.3,0.8-2c0.3-0.6,0.6-1.2,0.9-1.8l8.5-16.8
	c0.2-0.3,0.3-0.5,0.5-0.7c0.2-0.2,0.3-0.3,0.5-0.4c0.2-0.1,0.4-0.1,0.7-0.1c0.3,0,0.5,0,0.9,0h5.9V-31h-6.8v-19.1c0-0.9,0-1.9,0.1-3
	l-8.8,17.1c-0.3,0.5-0.6,0.9-1.1,1.2c-0.5,0.3-1,0.4-1.6,0.4h-1c-0.6,0-1.1-0.1-1.6-0.4c-0.5-0.3-0.8-0.7-1.1-1.2l-8.9-17.1
	c0.1,0.5,0.1,1.1,0.1,1.6c0,0.5,0,1,0,1.4V-31h-6.8v-33.3h5.9c0.3,0,0.6,0,0.9,0c0.3,0,0.5,0.1,0.7,0.1c0.2,0.1,0.4,0.2,0.5,0.4
	c0.2,0.2,0.3,0.4,0.5,0.7l8.6,16.9C-1026.4-45.6-1026.1-45-1025.8-44.4z"/>
<rect x="-999.9" y="-64.2" class="st3" width="7.8" height="33.3"/>
<path class="st3" d="M-967.3-57.5c-0.2,0.4-0.5,0.6-0.7,0.8c-0.3,0.2-0.6,0.3-1,0.3c-0.3,0-0.7-0.1-1.1-0.3
	c-0.4-0.2-0.9-0.5-1.4-0.7c-0.5-0.3-1.1-0.5-1.7-0.7c-0.7-0.2-1.4-0.3-2.2-0.3c-1.4,0-2.5,0.3-3.2,0.9c-0.7,0.6-1.1,1.4-1.1,2.5
	c0,0.7,0.2,1.2,0.6,1.7c0.4,0.4,1,0.8,1.7,1.1c0.7,0.3,1.5,0.6,2.4,0.9c0.9,0.3,1.8,0.6,2.7,0.9c0.9,0.3,1.8,0.7,2.7,1.2
	c0.9,0.4,1.7,1,2.4,1.7c0.7,0.7,1.3,1.5,1.7,2.5c0.4,1,0.6,2.2,0.6,3.5c0,1.5-0.3,3-0.8,4.3c-0.5,1.3-1.3,2.5-2.3,3.5
	c-1,1-2.3,1.8-3.7,2.4c-1.5,0.6-3.2,0.9-5.1,0.9c-1,0-2.1-0.1-3.2-0.3c-1.1-0.2-2.1-0.5-3.1-0.9c-1-0.4-1.9-0.8-2.8-1.4
	c-0.9-0.5-1.7-1.1-2.3-1.8l2.3-3.6c0.2-0.3,0.4-0.5,0.7-0.7c0.3-0.2,0.6-0.3,1-0.3c0.5,0,0.9,0.1,1.4,0.4c0.5,0.3,1,0.6,1.6,1
	c0.6,0.4,1.3,0.7,2,1c0.8,0.3,1.7,0.4,2.7,0.4c1.4,0,2.5-0.3,3.3-0.9s1.2-1.6,1.2-2.9c0-0.8-0.2-1.4-0.6-1.9c-0.4-0.5-1-0.9-1.7-1.2
	c-0.7-0.3-1.5-0.6-2.4-0.8c-0.9-0.2-1.8-0.5-2.7-0.8c-0.9-0.3-1.8-0.7-2.7-1.1c-0.9-0.4-1.7-1-2.4-1.7c-0.7-0.7-1.3-1.6-1.7-2.6
	c-0.4-1.1-0.6-2.4-0.6-3.9c0-1.2,0.3-2.5,0.8-3.7c0.5-1.2,1.2-2.2,2.2-3.2c1-0.9,2.2-1.7,3.6-2.2c1.4-0.6,3-0.8,4.9-0.8
	c1,0,2,0.1,3,0.2c1,0.2,1.9,0.4,2.7,0.7s1.7,0.7,2.4,1.1c0.8,0.4,1.4,0.9,2,1.5L-967.3-57.5z"/>
<path class="st3" d="M-942-57.5c-0.2,0.4-0.5,0.6-0.7,0.8c-0.3,0.2-0.6,0.3-1,0.3c-0.3,0-0.7-0.1-1.1-0.3c-0.4-0.2-0.9-0.5-1.4-0.7
	c-0.5-0.3-1.1-0.5-1.7-0.7c-0.7-0.2-1.4-0.3-2.2-0.3c-1.4,0-2.5,0.3-3.2,0.9c-0.7,0.6-1.1,1.4-1.1,2.5c0,0.7,0.2,1.2,0.6,1.7
	c0.4,0.4,1,0.8,1.7,1.1c0.7,0.3,1.5,0.6,2.4,0.9c0.9,0.3,1.8,0.6,2.7,0.9c0.9,0.3,1.8,0.7,2.7,1.2c0.9,0.4,1.7,1,2.4,1.7
	c0.7,0.7,1.3,1.5,1.7,2.5c0.4,1,0.6,2.2,0.6,3.5c0,1.5-0.3,3-0.8,4.3c-0.5,1.3-1.3,2.5-2.3,3.5c-1,1-2.3,1.8-3.7,2.4
	c-1.5,0.6-3.2,0.9-5.1,0.9c-1,0-2.1-0.1-3.2-0.3c-1.1-0.2-2.1-0.5-3.1-0.9c-1-0.4-1.9-0.8-2.8-1.4c-0.9-0.5-1.7-1.1-2.3-1.8l2.3-3.6
	c0.2-0.3,0.4-0.5,0.7-0.7c0.3-0.2,0.6-0.3,1-0.3c0.5,0,0.9,0.1,1.4,0.4c0.5,0.3,1,0.6,1.6,1c0.6,0.4,1.3,0.7,2,1
	c0.8,0.3,1.7,0.4,2.7,0.4c1.4,0,2.5-0.3,3.3-0.9c0.8-0.6,1.2-1.6,1.2-2.9c0-0.8-0.2-1.4-0.6-1.9c-0.4-0.5-1-0.9-1.7-1.2
	c-0.7-0.3-1.5-0.6-2.4-0.8c-0.9-0.2-1.8-0.5-2.7-0.8c-0.9-0.3-1.8-0.7-2.7-1.1c-0.9-0.4-1.7-1-2.4-1.7c-0.7-0.7-1.3-1.6-1.7-2.6
	c-0.4-1.1-0.6-2.4-0.6-3.9c0-1.2,0.3-2.5,0.8-3.7c0.5-1.2,1.2-2.2,2.2-3.2c1-0.9,2.2-1.7,3.6-2.2c1.4-0.6,3-0.8,4.9-0.8
	c1,0,2,0.1,3,0.2c1,0.2,1.9,0.4,2.7,0.7c0.9,0.3,1.7,0.7,2.4,1.1c0.8,0.4,1.4,0.9,2,1.5L-942-57.5z"/>
<rect x="-935.1" y="-64.2" class="st3" width="7.8" height="33.3"/>
<path class="st3" d="M-888.3-47.6c0,2.4-0.4,4.6-1.2,6.7c-0.8,2.1-2,3.9-3.5,5.4c-1.5,1.5-3.3,2.7-5.4,3.6c-2.1,0.9-4.5,1.3-7.1,1.3
	c-2.6,0-4.9-0.4-7.1-1.3c-2.1-0.9-4-2.1-5.5-3.6c-1.5-1.5-2.7-3.3-3.5-5.4c-0.8-2.1-1.2-4.3-1.2-6.7c0-2.4,0.4-4.6,1.2-6.7
	c0.8-2.1,2-3.9,3.5-5.4c1.5-1.5,3.3-2.7,5.5-3.6c2.1-0.9,4.5-1.3,7.1-1.3c2.6,0,4.9,0.4,7.1,1.3c2.1,0.9,3.9,2.1,5.4,3.6
	c1.5,1.5,2.7,3.3,3.5,5.4C-888.7-52.2-888.3-50-888.3-47.6z"/>
<path class="st4" d="M-896.2-47.6c0-1.6-0.2-3.1-0.6-4.4s-1-2.4-1.8-3.3c-0.8-0.9-1.8-1.6-2.9-2.1c-1.2-0.5-2.5-0.7-3.9-0.7
	c-1.5,0-2.8,0.2-4,0.7c-1.2,0.5-2.1,1.2-2.9,2.1c-0.8,0.9-1.4,2-1.8,3.3s-0.6,2.8-0.6,4.4c0,1.7,0.2,3.1,0.6,4.5
	c0.4,1.3,1,2.4,1.8,3.3c0.8,0.9,1.8,1.6,2.9,2.1c1.2,0.5,2.5,0.7,4,0.7c1.5,0,2.8-0.2,3.9-0.7c1.2-0.5,2.1-1.2,2.9-2.1
	c0.8-0.9,1.4-2,1.8-3.3C-896.4-44.5-896.2-46-896.2-47.6z"/>
<path class="st3" d="M-1025.8-44.4c0.3,0.6,0.6,1.3,0.8,1.9c0.3-0.7,0.5-1.3,0.8-2c0.3-0.6,0.6-1.2,0.9-1.8l8.5-16.8
	c0.2-0.3,0.3-0.5,0.5-0.7c0.2-0.2,0.3-0.3,0.5-0.4c0.2-0.1,0.4-0.1,0.7-0.1c0.3,0,0.5,0,0.9,0h5.9V-31h-6.8v-19.1c0-0.9,0-1.9,0.1-3
	l-8.8,17.1c-0.3,0.5-0.6,0.9-1.1,1.2c-0.5,0.3-1,0.4-1.6,0.4h-1c-0.6,0-1.1-0.1-1.6-0.4c-0.5-0.3-0.8-0.7-1.1-1.2l-8.9-17.1
	c0.1,0.5,0.1,1.1,0.1,1.6c0,0.5,0,1,0,1.4V-31h-6.8v-33.3h5.9c0.3,0,0.6,0,0.9,0c0.3,0,0.5,0.1,0.7,0.1c0.2,0.1,0.4,0.2,0.5,0.4
	c0.2,0.2,0.3,0.4,0.5,0.7l8.6,16.9C-1026.4-45.6-1026.1-45-1025.8-44.4z"/>
<rect x="-999.9" y="-64.2" class="st3" width="7.8" height="33.3"/>
<path class="st3" d="M-967.3-57.5c-0.2,0.4-0.5,0.6-0.7,0.8c-0.3,0.2-0.6,0.3-1,0.3c-0.3,0-0.7-0.1-1.1-0.3
	c-0.4-0.2-0.9-0.5-1.4-0.7c-0.5-0.3-1.1-0.5-1.7-0.7c-0.7-0.2-1.4-0.3-2.2-0.3c-1.4,0-2.5,0.3-3.2,0.9c-0.7,0.6-1.1,1.4-1.1,2.5
	c0,0.7,0.2,1.2,0.6,1.7c0.4,0.4,1,0.8,1.7,1.1c0.7,0.3,1.5,0.6,2.4,0.9c0.9,0.3,1.8,0.6,2.7,0.9c0.9,0.3,1.8,0.7,2.7,1.2
	c0.9,0.4,1.7,1,2.4,1.7c0.7,0.7,1.3,1.5,1.7,2.5c0.4,1,0.6,2.2,0.6,3.5c0,1.5-0.3,3-0.8,4.3c-0.5,1.3-1.3,2.5-2.3,3.5
	c-1,1-2.3,1.8-3.7,2.4c-1.5,0.6-3.2,0.9-5.1,0.9c-1,0-2.1-0.1-3.2-0.3c-1.1-0.2-2.1-0.5-3.1-0.9c-1-0.4-1.9-0.8-2.8-1.4
	c-0.9-0.5-1.7-1.1-2.3-1.8l2.3-3.6c0.2-0.3,0.4-0.5,0.7-0.7c0.3-0.2,0.6-0.3,1-0.3c0.5,0,0.9,0.1,1.4,0.4c0.5,0.3,1,0.6,1.6,1
	c0.6,0.4,1.3,0.7,2,1c0.8,0.3,1.7,0.4,2.7,0.4c1.4,0,2.5-0.3,3.3-0.9s1.2-1.6,1.2-2.9c0-0.8-0.2-1.4-0.6-1.9c-0.4-0.5-1-0.9-1.7-1.2
	c-0.7-0.3-1.5-0.6-2.4-0.8c-0.9-0.2-1.8-0.5-2.7-0.8c-0.9-0.3-1.8-0.7-2.7-1.1c-0.9-0.4-1.7-1-2.4-1.7c-0.7-0.7-1.3-1.6-1.7-2.6
	c-0.4-1.1-0.6-2.4-0.6-3.9c0-1.2,0.3-2.5,0.8-3.7c0.5-1.2,1.2-2.2,2.2-3.2c1-0.9,2.2-1.7,3.6-2.2c1.4-0.6,3-0.8,4.9-0.8
	c1,0,2,0.1,3,0.2c1,0.2,1.9,0.4,2.7,0.7s1.7,0.7,2.4,1.1c0.8,0.4,1.4,0.9,2,1.5L-967.3-57.5z"/>
<path class="st3" d="M-942-57.5c-0.2,0.4-0.5,0.6-0.7,0.8c-0.3,0.2-0.6,0.3-1,0.3c-0.3,0-0.7-0.1-1.1-0.3c-0.4-0.2-0.9-0.5-1.4-0.7
	c-0.5-0.3-1.1-0.5-1.7-0.7c-0.7-0.2-1.4-0.3-2.2-0.3c-1.4,0-2.5,0.3-3.2,0.9c-0.7,0.6-1.1,1.4-1.1,2.5c0,0.7,0.2,1.2,0.6,1.7
	c0.4,0.4,1,0.8,1.7,1.1c0.7,0.3,1.5,0.6,2.4,0.9c0.9,0.3,1.8,0.6,2.7,0.9c0.9,0.3,1.8,0.7,2.7,1.2c0.9,0.4,1.7,1,2.4,1.7
	c0.7,0.7,1.3,1.5,1.7,2.5c0.4,1,0.6,2.2,0.6,3.5c0,1.5-0.3,3-0.8,4.3c-0.5,1.3-1.3,2.5-2.3,3.5c-1,1-2.3,1.8-3.7,2.4
	c-1.5,0.6-3.2,0.9-5.1,0.9c-1,0-2.1-0.1-3.2-0.3c-1.1-0.2-2.1-0.5-3.1-0.9c-1-0.4-1.9-0.8-2.8-1.4c-0.9-0.5-1.7-1.1-2.3-1.8l2.3-3.6
	c0.2-0.3,0.4-0.5,0.7-0.7c0.3-0.2,0.6-0.3,1-0.3c0.5,0,0.9,0.1,1.4,0.4c0.5,0.3,1,0.6,1.6,1c0.6,0.4,1.3,0.7,2,1
	c0.8,0.3,1.7,0.4,2.7,0.4c1.4,0,2.5-0.3,3.3-0.9c0.8-0.6,1.2-1.6,1.2-2.9c0-0.8-0.2-1.4-0.6-1.9c-0.4-0.5-1-0.9-1.7-1.2
	c-0.7-0.3-1.5-0.6-2.4-0.8c-0.9-0.2-1.8-0.5-2.7-0.8c-0.9-0.3-1.8-0.7-2.7-1.1c-0.9-0.4-1.7-1-2.4-1.7c-0.7-0.7-1.3-1.6-1.7-2.6
	c-0.4-1.1-0.6-2.4-0.6-3.9c0-1.2,0.3-2.5,0.8-3.7c0.5-1.2,1.2-2.2,2.2-3.2c1-0.9,2.2-1.7,3.6-2.2c1.4-0.6,3-0.8,4.9-0.8
	c1,0,2,0.1,3,0.2c1,0.2,1.9,0.4,2.7,0.7c0.9,0.3,1.7,0.7,2.4,1.1c0.8,0.4,1.4,0.9,2,1.5L-942-57.5z"/>
<rect x="-935.1" y="-64.2" class="st3" width="7.8" height="33.3"/>
<path class="st3" d="M-888.3-47.6c0,2.4-0.4,4.6-1.2,6.7c-0.8,2.1-2,3.9-3.5,5.4c-1.5,1.5-3.3,2.7-5.4,3.6c-2.1,0.9-4.5,1.3-7.1,1.3
	c-2.6,0-4.9-0.4-7.1-1.3c-2.1-0.9-4-2.1-5.5-3.6c-1.5-1.5-2.7-3.3-3.5-5.4c-0.8-2.1-1.2-4.3-1.2-6.7c0-2.4,0.4-4.6,1.2-6.7
	c0.8-2.1,2-3.9,3.5-5.4c1.5-1.5,3.3-2.7,5.5-3.6c2.1-0.9,4.5-1.3,7.1-1.3c2.6,0,4.9,0.4,7.1,1.3c2.1,0.9,3.9,2.1,5.4,3.6
	c1.5,1.5,2.7,3.3,3.5,5.4C-888.7-52.2-888.3-50-888.3-47.6z"/>
<path class="st1" d="M-896.2-47.6c0-1.6-0.2-3.1-0.6-4.4s-1-2.4-1.8-3.3c-0.8-0.9-1.8-1.6-2.9-2.1c-1.2-0.5-2.5-0.7-3.9-0.7
	c-1.5,0-2.8,0.2-4,0.7c-1.2,0.5-2.1,1.2-2.9,2.1c-0.8,0.9-1.4,2-1.8,3.3s-0.6,2.8-0.6,4.4c0,1.7,0.2,3.1,0.6,4.5
	c0.4,1.3,1,2.4,1.8,3.3c0.8,0.9,1.8,1.6,2.9,2.1c1.2,0.5,2.5,0.7,4,0.7c1.5,0,2.8-0.2,3.9-0.7c1.2-0.5,2.1-1.2,2.9-2.1
	c0.8-0.9,1.4-2,1.8-3.3C-896.4-44.5-896.2-46-896.2-47.6z"/>
<path class="st3" d="M-878.9-64.2c0.2,0,0.4,0.1,0.6,0.2c0.2,0.1,0.4,0.2,0.5,0.4c0.2,0.2,0.4,0.4,0.6,0.6l15.8,20
	c-0.1-0.6-0.1-1.3-0.1-1.9c0-0.6,0-1.2,0-1.7v-17.6h6.8V-31h-4c-0.6,0-1.1-0.1-1.5-0.3c-0.4-0.2-0.8-0.5-1.2-1l-15.7-19.8
	c0,0.6,0.1,1.1,0.1,1.7c0,0.6,0,1.1,0,1.6V-31h-6.8v-33.3h4.1C-879.4-64.2-879.1-64.2-878.9-64.2z"/>
<g>
	<path class="st3" d="M43.2,35.9c0,0.6-0.1,1.1-0.2,1.6c-0.1,0.5-0.4,0.9-0.6,1.2c-0.3,0.3-0.7,0.6-1.1,0.8
		c-0.4,0.2-0.9,0.3-1.5,0.3c-0.3,0-0.5,0-0.8,0s-0.5-0.1-0.8-0.1l0.1-1.4c0-0.1,0.1-0.2,0.1-0.3c0.1-0.1,0.2-0.1,0.4-0.1
		c0.1,0,0.2,0,0.3,0s0.3,0,0.4,0c0.2,0,0.4,0,0.6-0.1c0.2-0.1,0.3-0.2,0.4-0.3c0.1-0.1,0.2-0.3,0.3-0.6c0.1-0.2,0.1-0.5,0.1-0.9
		v-6.6h2.4V35.9z"/>
	<path class="st3" d="M47.5,39.7h-2.4V29.4h2.4V39.7z"/>
	<path class="st3" d="M61,29.4v10.2h-2.1v-5.9c0-0.1,0-0.3,0-0.4c0-0.2,0-0.3,0-0.5l-2.7,5.3c-0.1,0.2-0.2,0.3-0.3,0.4
		s-0.3,0.1-0.5,0.1H55c-0.2,0-0.3,0-0.5-0.1s-0.3-0.2-0.3-0.4l-2.7-5.3c0,0.2,0,0.3,0,0.5c0,0.2,0,0.3,0,0.4v5.9h-2.1V29.4h1.8
		c0.1,0,0.2,0,0.3,0c0.1,0,0.1,0,0.2,0c0.1,0,0.1,0.1,0.2,0.1s0.1,0.1,0.1,0.2l2.6,5.2c0.1,0.2,0.2,0.4,0.3,0.6
		c0.1,0.2,0.2,0.4,0.2,0.6c0.1-0.2,0.2-0.4,0.2-0.6c0.1-0.2,0.2-0.4,0.3-0.6l2.6-5.2c0-0.1,0.1-0.2,0.1-0.2s0.1-0.1,0.2-0.1
		c0.1,0,0.1,0,0.2,0c0.1,0,0.2,0,0.3,0H61z"/>
	<path class="st3" d="M74.5,29.4v10.2h-2.1v-5.9c0-0.1,0-0.3,0-0.4c0-0.2,0-0.3,0-0.5l-2.7,5.3c-0.1,0.2-0.2,0.3-0.3,0.4
		s-0.3,0.1-0.5,0.1h-0.3c-0.2,0-0.3,0-0.5-0.1s-0.3-0.2-0.3-0.4L65,32.8c0,0.2,0,0.3,0,0.5c0,0.2,0,0.3,0,0.4v5.9h-2.1V29.4h1.8
		c0.1,0,0.2,0,0.3,0c0.1,0,0.1,0,0.2,0c0.1,0,0.1,0.1,0.2,0.1s0.1,0.1,0.1,0.2l2.6,5.2c0.1,0.2,0.2,0.4,0.3,0.6
		c0.1,0.2,0.2,0.4,0.2,0.6c0.1-0.2,0.2-0.4,0.2-0.6c0.1-0.2,0.2-0.4,0.3-0.6l2.6-5.2c0-0.1,0.1-0.2,0.1-0.2s0.1-0.1,0.2-0.1
		c0.1,0,0.1,0,0.2,0c0.1,0,0.2,0,0.3,0H74.5z"/>
	<path class="st3" d="M81.3,35.8v3.9H79v-3.9l-3.7-6.3h2.1c0.2,0,0.4,0,0.5,0.1c0.1,0.1,0.2,0.2,0.3,0.4l1.4,3
		c0.1,0.2,0.2,0.5,0.3,0.7c0.1,0.2,0.2,0.4,0.3,0.6c0.1-0.2,0.2-0.4,0.2-0.6c0.1-0.2,0.2-0.4,0.3-0.7l1.4-3c0-0.1,0.1-0.1,0.1-0.2
		c0-0.1,0.1-0.1,0.2-0.2c0.1,0,0.1-0.1,0.2-0.1c0.1,0,0.2,0,0.3,0h2.1L81.3,35.8z"/>
</g>
<g>
	<g>
		<path class="st3" d="M38.3,16.1v10.2h-2.1v-5.9c0-0.1,0-0.3,0-0.4c0-0.2,0-0.3,0-0.5l-2.7,5.3c-0.1,0.2-0.2,0.3-0.3,0.4
			s-0.3,0.1-0.5,0.1h-0.3c-0.2,0-0.3,0-0.5-0.1s-0.3-0.2-0.3-0.4l-2.7-5.3c0,0.2,0,0.3,0,0.5c0,0.2,0,0.3,0,0.4v5.9h-2.1V16.1h1.8
			c0.1,0,0.2,0,0.3,0c0.1,0,0.1,0,0.2,0c0.1,0,0.1,0.1,0.2,0.1s0.1,0.1,0.1,0.2l2.6,5.2c0.1,0.2,0.2,0.4,0.3,0.6
			c0.1,0.2,0.2,0.4,0.2,0.6c0.1-0.2,0.2-0.4,0.2-0.6c0.1-0.2,0.2-0.4,0.3-0.6l2.6-5.2c0-0.1,0.1-0.2,0.1-0.2s0.1-0.1,0.2-0.1
			c0.1,0,0.1,0,0.2,0c0.1,0,0.2,0,0.3,0H38.3z"/>
		<path class="st3" d="M42.7,26.3h-2.4V16.1h2.4V26.3z"/>
		<path class="st3" d="M50.3,18.2c-0.1,0.1-0.1,0.2-0.2,0.3c-0.1,0.1-0.2,0.1-0.3,0.1c-0.1,0-0.2,0-0.3-0.1s-0.3-0.1-0.4-0.2
			S48.7,18,48.5,18c-0.2-0.1-0.4-0.1-0.7-0.1c-0.4,0-0.8,0.1-1,0.3c-0.2,0.2-0.3,0.4-0.3,0.8c0,0.2,0.1,0.4,0.2,0.5s0.3,0.3,0.5,0.4
			c0.2,0.1,0.5,0.2,0.7,0.3c0.3,0.1,0.6,0.2,0.8,0.3c0.3,0.1,0.6,0.2,0.8,0.4c0.3,0.1,0.5,0.3,0.7,0.5s0.4,0.5,0.5,0.8
			c0.1,0.3,0.2,0.7,0.2,1.1c0,0.5-0.1,0.9-0.2,1.3c-0.2,0.4-0.4,0.8-0.7,1.1c-0.3,0.3-0.7,0.5-1.2,0.7c-0.5,0.2-1,0.3-1.6,0.3
			c-0.3,0-0.6,0-1-0.1c-0.3-0.1-0.7-0.2-1-0.3c-0.3-0.1-0.6-0.3-0.9-0.4c-0.3-0.2-0.5-0.3-0.7-0.5l0.7-1.1c0.1-0.1,0.1-0.1,0.2-0.2
			c0.1-0.1,0.2-0.1,0.3-0.1c0.1,0,0.3,0,0.4,0.1s0.3,0.2,0.5,0.3c0.2,0.1,0.4,0.2,0.6,0.3c0.2,0.1,0.5,0.1,0.8,0.1
			c0.4,0,0.8-0.1,1-0.3c0.2-0.2,0.4-0.5,0.4-0.9c0-0.2-0.1-0.4-0.2-0.6c-0.1-0.1-0.3-0.3-0.5-0.4c-0.2-0.1-0.5-0.2-0.7-0.3
			c-0.3-0.1-0.6-0.2-0.8-0.2c-0.3-0.1-0.6-0.2-0.8-0.3c-0.3-0.1-0.5-0.3-0.7-0.5c-0.2-0.2-0.4-0.5-0.5-0.8c-0.1-0.3-0.2-0.7-0.2-1.2
			c0-0.4,0.1-0.8,0.2-1.1c0.2-0.4,0.4-0.7,0.7-1c0.3-0.3,0.7-0.5,1.1-0.7c0.4-0.2,0.9-0.3,1.5-0.3c0.3,0,0.6,0,0.9,0.1
			c0.3,0,0.6,0.1,0.8,0.2s0.5,0.2,0.7,0.3c0.2,0.1,0.4,0.3,0.6,0.5L50.3,18.2z"/>
		<path class="st3" d="M58.1,18.2c-0.1,0.1-0.1,0.2-0.2,0.3c-0.1,0.1-0.2,0.1-0.3,0.1c-0.1,0-0.2,0-0.3-0.1s-0.3-0.1-0.4-0.2
			S56.5,18,56.3,18c-0.2-0.1-0.4-0.1-0.7-0.1c-0.4,0-0.8,0.1-1,0.3c-0.2,0.2-0.3,0.4-0.3,0.8c0,0.2,0.1,0.4,0.2,0.5s0.3,0.3,0.5,0.4
			c0.2,0.1,0.5,0.2,0.7,0.3c0.3,0.1,0.6,0.2,0.8,0.3c0.3,0.1,0.6,0.2,0.8,0.4c0.3,0.1,0.5,0.3,0.7,0.5s0.4,0.5,0.5,0.8
			c0.1,0.3,0.2,0.7,0.2,1.1c0,0.5-0.1,0.9-0.2,1.3c-0.2,0.4-0.4,0.8-0.7,1.1c-0.3,0.3-0.7,0.5-1.2,0.7c-0.5,0.2-1,0.3-1.6,0.3
			c-0.3,0-0.6,0-1-0.1c-0.3-0.1-0.7-0.2-1-0.3c-0.3-0.1-0.6-0.3-0.9-0.4c-0.3-0.2-0.5-0.3-0.7-0.5l0.7-1.1c0.1-0.1,0.1-0.1,0.2-0.2
			c0.1-0.1,0.2-0.1,0.3-0.1c0.1,0,0.3,0,0.4,0.1s0.3,0.2,0.5,0.3c0.2,0.1,0.4,0.2,0.6,0.3c0.2,0.1,0.5,0.1,0.8,0.1
			c0.4,0,0.8-0.1,1-0.3c0.2-0.2,0.4-0.5,0.4-0.9c0-0.2-0.1-0.4-0.2-0.6c-0.1-0.1-0.3-0.3-0.5-0.4c-0.2-0.1-0.5-0.2-0.7-0.3
			c-0.3-0.1-0.6-0.2-0.8-0.2c-0.3-0.1-0.6-0.2-0.8-0.3c-0.3-0.1-0.5-0.3-0.7-0.5c-0.2-0.2-0.4-0.5-0.5-0.8c-0.1-0.3-0.2-0.7-0.2-1.2
			c0-0.4,0.1-0.8,0.2-1.1c0.2-0.4,0.4-0.7,0.7-1c0.3-0.3,0.7-0.5,1.1-0.7c0.4-0.2,0.9-0.3,1.5-0.3c0.3,0,0.6,0,0.9,0.1
			c0.3,0,0.6,0.1,0.8,0.2s0.5,0.2,0.7,0.3c0.2,0.1,0.4,0.3,0.6,0.5L58.1,18.2z"/>
		<path class="st3" d="M62.6,26.3h-2.4V16.1h2.4V26.3z"/>
		<path class="st3" d="M74.7,21.2c0,0.7-0.1,1.4-0.4,2.1c-0.3,0.6-0.6,1.2-1.1,1.7s-1,0.8-1.7,1.1s-1.4,0.4-2.2,0.4
			s-1.5-0.1-2.2-0.4c-0.7-0.3-1.2-0.6-1.7-1.1c-0.5-0.5-0.8-1-1.1-1.7C64.2,22.6,64,22,64,21.2c0-0.7,0.1-1.4,0.4-2.1
			c0.3-0.6,0.6-1.2,1.1-1.7c0.5-0.5,1-0.8,1.7-1.1c0.7-0.3,1.4-0.4,2.2-0.4s1.5,0.1,2.2,0.4s1.2,0.6,1.7,1.1s0.8,1,1.1,1.7
			S74.7,20.5,74.7,21.2z M72.2,21.2c0-0.5-0.1-1-0.2-1.4c-0.1-0.4-0.3-0.7-0.6-1s-0.5-0.5-0.9-0.6C70.2,18,69.8,18,69.4,18
			c-0.5,0-0.9,0.1-1.2,0.2c-0.4,0.1-0.7,0.4-0.9,0.6s-0.4,0.6-0.6,1c-0.1,0.4-0.2,0.9-0.2,1.4c0,0.5,0.1,1,0.2,1.4
			c0.1,0.4,0.3,0.7,0.6,1s0.5,0.5,0.9,0.6c0.4,0.1,0.8,0.2,1.2,0.2c0.5,0,0.9-0.1,1.2-0.2c0.4-0.1,0.7-0.4,0.9-0.6s0.4-0.6,0.6-1
			C72.2,22.2,72.2,21.7,72.2,21.2z"/>
		<path class="st3" d="M85,16.1v10.2h-1.2c-0.2,0-0.3,0-0.5-0.1c-0.1-0.1-0.2-0.2-0.4-0.3l-4.8-6.1c0,0.2,0,0.4,0,0.5
			c0,0.2,0,0.3,0,0.5v5.5h-2.1V16.1h1.3c0.1,0,0.2,0,0.3,0c0.1,0,0.1,0,0.2,0.1c0.1,0,0.1,0.1,0.2,0.1c0.1,0,0.1,0.1,0.2,0.2
			l4.9,6.2c0-0.2,0-0.4,0-0.6s0-0.4,0-0.5v-5.4H85z"/>
	</g>
</g>
<path class="st3" d="M11.4,43.3h9.9l1.2-3.9c0,0,3.2,1.2,2.3,10.3c1.6,0,2,0,2,0s5.8-13.5-3.2-16.9c0.3-1.2,1.6-5.6,1.2-8.1
	c-1,0-17,0-17,0L11.4,43.3z"/>
<path class="st3" d="M21.3,43.3h-9.9l-1.2-3.9c0,0-3.2,1.2-2.3,10.3c-1.6,0-2,0-2,0S0.2,36.2,9.1,32.8c-0.3-1.2-1.6-5.6-1.2-8.1
	c1,0,17,0,17,0L21.3,43.3z"/>
<path class="st3" d="M16.3,4.2C15.3,5.3,8.3,12,7.9,23c1.2,0,7.9,0,7.9,0h9.2C24.9,23,26.1,15.4,16.3,4.2z M16.4,18.3
	c-1.4,0-2.5-1.1-2.5-2.5s1.1-2.5,2.5-2.5c1.4,0,2.5,1.1,2.5,2.5S17.8,18.3,16.4,18.3z"/>
</svg>
