<?xml version="1.0" encoding="utf-8"?>
<!-- Generator: Adobe Illustrator 19.1.0, SVG Export Plug-In . SVG Version: 6.00 Build 0)  -->
<svg version="1.1" id="linkedin" xmlns="http://www.w3.org/2000/svg" xmlns:xlink="http://www.w3.org/1999/xlink" x="0px" y="0px"
	 viewBox="-247 370.9 100 100" style="enable-background:new -247 370.9 100 100;" xml:space="preserve">
<style type="text/css">
	.st0{fill:#FFFFFF;}
</style>
<g>
	<g>
		<path class="st0" d="M-201.3,426.3h8.5l1-3.4c0,0,2.7,1,2,8.9c1.4,0,1.7,0,1.7,0s5-11.7-2.7-14.6c0.2-1,1.4-4.8,1.1-7
			c-0.8,0-14.6,0-14.6,0L-201.3,426.3z"/>
		<path class="st0" d="M-192.7,426.3h-8.5l-1-3.4c0,0-2.7,1-2,8.9c-1.4,0-1.7,0-1.7,0s-5-11.7,2.7-14.6c-0.2-1-1.4-4.8-1.1-7
			c0.8,0,14.6,0,14.6,0L-192.7,426.3z"/>
		<path class="st0" d="M-197.1,393c-0.9,0.9-6.8,5.4-7.3,16.2c1.1,0,6.8,0,6.8,0h7.9C-189.7,409.2-188.6,402.7-197.1,393z
			 M-197.1,403.5c-1.2,0-2.2-1-2.2-2.2c0-1.2,1-2.2,2.2-2.2s2.2,1,2.2,2.2C-194.9,402.6-195.9,403.5-197.1,403.5z"/>
	</g>
	<g>
		<g>
			<path class="st0" d="M-234.4,435.9c0.9,0,1.7,0.1,2.3,0.3c0.6,0.2,1.2,0.5,1.6,0.9c0.4,0.4,0.7,0.8,0.9,1.3s0.3,1.1,0.3,1.6
				c0,0.6-0.1,1.2-0.3,1.8c-0.2,0.5-0.5,1-0.9,1.4c-0.4,0.4-1,0.7-1.6,0.9c-0.6,0.2-1.4,0.3-2.3,0.3h-1.5v4.3h-3v-12.8H-234.4z
				 M-234.4,442.2c0.8,0,1.3-0.2,1.7-0.6c0.3-0.4,0.5-0.9,0.5-1.5c0-0.3,0-0.6-0.1-0.8c-0.1-0.2-0.2-0.4-0.4-0.6s-0.4-0.3-0.7-0.4
				c-0.3-0.1-0.6-0.1-1-0.1h-1.5v4.1H-234.4z"/>
			<path class="st0" d="M-217.3,448.7h-2.7c-0.5,0-0.9-0.2-1.1-0.6l-2.1-3.7c-0.1-0.2-0.2-0.3-0.3-0.3c-0.1-0.1-0.3-0.1-0.5-0.1
				h-0.8v4.7h-3v-12.8h4.2c0.9,0,1.7,0.1,2.4,0.3c0.7,0.2,1.2,0.5,1.6,0.8c0.4,0.3,0.7,0.7,0.9,1.2c0.2,0.5,0.3,1,0.3,1.5
				c0,0.4-0.1,0.8-0.2,1.2c-0.1,0.4-0.3,0.7-0.5,1c-0.2,0.3-0.5,0.6-0.8,0.8c-0.3,0.2-0.7,0.4-1.1,0.6c0.2,0.1,0.4,0.2,0.5,0.4
				c0.2,0.1,0.3,0.3,0.5,0.5L-217.3,448.7z M-223.6,441.9c0.4,0,0.7-0.1,1-0.2c0.3-0.1,0.5-0.2,0.7-0.4c0.2-0.2,0.3-0.4,0.4-0.6
				c0.1-0.2,0.1-0.5,0.1-0.8c0-0.6-0.2-1-0.5-1.3c-0.4-0.3-0.9-0.5-1.7-0.5h-1.2v3.8H-223.6z"/>
			<path class="st0" d="M-203.9,442.3c0,0.9-0.2,1.8-0.5,2.6c-0.3,0.8-0.8,1.5-1.3,2.1c-0.6,0.6-1.3,1-2.1,1.4
				c-0.8,0.3-1.7,0.5-2.7,0.5c-1,0-1.9-0.2-2.7-0.5c-0.8-0.3-1.5-0.8-2.1-1.4c-0.6-0.6-1-1.3-1.4-2.1c-0.3-0.8-0.5-1.7-0.5-2.6
				c0-0.9,0.2-1.8,0.5-2.6c0.3-0.8,0.8-1.5,1.4-2.1c0.6-0.6,1.3-1,2.1-1.4c0.8-0.3,1.7-0.5,2.7-0.5c1,0,1.9,0.2,2.7,0.5
				c0.8,0.3,1.5,0.8,2.1,1.4s1,1.3,1.3,2.1C-204.1,440.5-203.9,441.4-203.9,442.3z M-207,442.3c0-0.6-0.1-1.2-0.2-1.7
				c-0.2-0.5-0.4-0.9-0.7-1.3c-0.3-0.4-0.7-0.6-1.1-0.8c-0.4-0.2-1-0.3-1.5-0.3c-0.6,0-1.1,0.1-1.5,0.3c-0.4,0.2-0.8,0.5-1.1,0.8
				c-0.3,0.4-0.5,0.8-0.7,1.3c-0.2,0.5-0.2,1.1-0.2,1.7c0,0.6,0.1,1.2,0.2,1.7c0.2,0.5,0.4,0.9,0.7,1.3c0.3,0.4,0.7,0.6,1.1,0.8
				s1,0.3,1.5,0.3c0.6,0,1.1-0.1,1.5-0.3s0.8-0.5,1.1-0.8c0.3-0.4,0.5-0.8,0.7-1.3C-207.1,443.5-207,442.9-207,442.3z"/>
			<path class="st0" d="M-197.3,444c0,0.7-0.1,1.4-0.3,1.9s-0.4,1.1-0.8,1.5s-0.8,0.7-1.4,1c-0.5,0.2-1.2,0.3-1.9,0.3
				c-0.3,0-0.7,0-1-0.1c-0.3,0-0.7-0.1-1-0.2l0.2-1.7c0-0.2,0.1-0.3,0.2-0.4c0.1-0.1,0.3-0.1,0.4-0.1c0.1,0,0.2,0,0.4,0
				c0.1,0,0.3,0,0.5,0c0.3,0,0.5,0,0.7-0.1c0.2-0.1,0.4-0.2,0.5-0.4c0.1-0.2,0.2-0.4,0.3-0.7s0.1-0.7,0.1-1.1v-8.2h3V444z"/>
			<path class="st0" d="M-192,438.2v3h4v2.2h-4v3h5.2v2.3h-8.2v-12.8h8.2v2.3H-192z"/>
			<path class="st0" d="M-176.6,445.4c0.1,0,0.1,0,0.2,0c0.1,0,0.1,0.1,0.2,0.1l1.2,1.2c-0.5,0.7-1.2,1.2-1.9,1.5
				c-0.8,0.3-1.7,0.5-2.7,0.5c-1,0-1.8-0.2-2.6-0.5c-0.8-0.3-1.4-0.8-2-1.4c-0.5-0.6-0.9-1.3-1.2-2.1c-0.3-0.8-0.4-1.7-0.4-2.6
				c0-1,0.2-1.8,0.5-2.6c0.3-0.8,0.7-1.5,1.3-2.1c0.6-0.6,1.2-1,2-1.4s1.6-0.5,2.6-0.5c0.5,0,0.9,0,1.4,0.1c0.4,0.1,0.8,0.2,1.2,0.4
				c0.4,0.1,0.7,0.3,1,0.5c0.3,0.2,0.6,0.4,0.8,0.7l-1,1.3c-0.1,0.1-0.1,0.2-0.2,0.2c-0.1,0.1-0.2,0.1-0.4,0.1c-0.1,0-0.2,0-0.3-0.1
				c-0.1,0-0.2-0.1-0.3-0.2c-0.1-0.1-0.2-0.1-0.3-0.2c-0.1-0.1-0.3-0.2-0.4-0.2c-0.2-0.1-0.4-0.1-0.6-0.2c-0.2,0-0.5-0.1-0.8-0.1
				c-0.5,0-0.9,0.1-1.3,0.3c-0.4,0.2-0.8,0.4-1.1,0.8c-0.3,0.3-0.5,0.8-0.7,1.3c-0.2,0.5-0.2,1.1-0.2,1.7c0,0.7,0.1,1.2,0.3,1.7
				s0.4,0.9,0.7,1.3c0.3,0.3,0.7,0.6,1.1,0.8c0.4,0.2,0.8,0.3,1.3,0.3c0.3,0,0.5,0,0.7,0c0.2,0,0.4-0.1,0.6-0.1
				c0.2-0.1,0.4-0.1,0.5-0.2s0.3-0.2,0.5-0.4c0.1-0.1,0.1-0.1,0.2-0.1C-176.8,445.4-176.7,445.4-176.6,445.4z"/>
			<path class="st0" d="M-164.5,438.2h-3.6v10.4h-3v-10.4h-3.6v-2.4h10.2V438.2z"/>
			<path class="st0" d="M-156,438.5c-0.1,0.1-0.2,0.2-0.3,0.3c-0.1,0.1-0.2,0.1-0.4,0.1c-0.1,0-0.3,0-0.4-0.1
				c-0.2-0.1-0.3-0.2-0.5-0.3c-0.2-0.1-0.4-0.2-0.7-0.3c-0.3-0.1-0.5-0.1-0.9-0.1c-0.6,0-1,0.1-1.2,0.4c-0.3,0.2-0.4,0.6-0.4,1
				c0,0.3,0.1,0.5,0.2,0.6c0.2,0.2,0.4,0.3,0.6,0.4c0.3,0.1,0.6,0.2,0.9,0.3c0.3,0.1,0.7,0.2,1,0.3s0.7,0.3,1,0.4
				c0.3,0.2,0.6,0.4,0.9,0.6c0.3,0.3,0.5,0.6,0.6,1c0.2,0.4,0.2,0.8,0.2,1.4c0,0.6-0.1,1.1-0.3,1.7c-0.2,0.5-0.5,1-0.9,1.3
				c-0.4,0.4-0.9,0.7-1.4,0.9c-0.6,0.2-1.2,0.3-1.9,0.3c-0.4,0-0.8,0-1.2-0.1c-0.4-0.1-0.8-0.2-1.2-0.3c-0.4-0.1-0.7-0.3-1.1-0.5
				c-0.3-0.2-0.6-0.4-0.9-0.7l0.9-1.4c0.1-0.1,0.2-0.2,0.3-0.3c0.1-0.1,0.2-0.1,0.4-0.1c0.2,0,0.4,0.1,0.5,0.2
				c0.2,0.1,0.4,0.2,0.6,0.4c0.2,0.1,0.5,0.3,0.8,0.4c0.3,0.1,0.6,0.2,1,0.2c0.5,0,1-0.1,1.3-0.4s0.4-0.6,0.4-1.1
				c0-0.3-0.1-0.5-0.2-0.7c-0.2-0.2-0.4-0.3-0.6-0.5c-0.3-0.1-0.6-0.2-0.9-0.3c-0.3-0.1-0.7-0.2-1-0.3c-0.4-0.1-0.7-0.3-1-0.4
				c-0.3-0.2-0.6-0.4-0.9-0.7c-0.3-0.3-0.5-0.6-0.6-1c-0.2-0.4-0.2-0.9-0.2-1.5c0-0.5,0.1-0.9,0.3-1.4c0.2-0.5,0.5-0.9,0.9-1.2
				c0.4-0.4,0.8-0.6,1.4-0.9c0.5-0.2,1.2-0.3,1.9-0.3c0.4,0,0.8,0,1.1,0.1c0.4,0.1,0.7,0.2,1.1,0.3c0.3,0.1,0.6,0.3,0.9,0.4
				c0.3,0.2,0.5,0.4,0.8,0.6L-156,438.5z"/>
		</g>
	</g>
</g>
</svg>
